<svg xmlns="http://www.w3.org/2000/svg" width="356" height="285" viewBox="0 0 356 285"><g><g><g><g><path fill="#135d89" d="M345.698 164.002C345.698 73.428 272.425 0 182.041 0 91.657 0 18.384 73.428 18.384 164.002c0 24.129 5.245 47.02 14.582 67.65h298.15c9.341-20.63 14.582-43.521 14.582-67.65"/></g><g><path fill="none" stroke="#1a1816" stroke-linecap="round" stroke-linejoin="round" stroke-miterlimit="50" stroke-width="2.5" d="M20.427 231.656h319.131"/></g><g><path fill="none" stroke="#1a1816" stroke-linecap="round" stroke-linejoin="round" stroke-miterlimit="50" stroke-width="2.5" d="M2.02 231.656H12.25"/></g><g><path fill="none" stroke="#1a1816" stroke-linecap="round" stroke-linejoin="round" stroke-miterlimit="50" stroke-width="2.5" d="M347.745 231.656h10.228"/></g><g><path fill="#614b44" d="M274.757 123.703c-3.633-5.994-5.56-12.128-5.56-20.41 0-49.348-9.05-86.888-56.572-86.888-47.522 0-56.572 37.54-56.572 86.888 0 8.282-1.927 14.416-5.56 20.41a8.22 8.22 0 0 0-.496 7.557 8.199 8.199 0 0 0 5.892 4.744c16.129 3.218 30.133 2.185 42.015-3.108V115.63h29.442v17.266c11.881 5.293 25.886 6.326 42.015 3.108a8.205 8.205 0 0 0 5.895-4.744 8.22 8.22 0 0 0-.499-7.557"/></g><g><path fill="#947063" d="M212.626 34.946c37.18 0 51.548 22.259 56.327 55.21-1.718-42.722-13.121-73.75-56.327-73.75-43.205 0-54.608 31.032-56.322 73.755 4.774-32.956 19.144-55.215 56.322-55.215"/></g><g><path fill="none" stroke="#1a1816" stroke-linecap="round" stroke-linejoin="round" stroke-miterlimit="50" stroke-width="2.5" d="M274.757 123.703c-3.633-5.994-5.56-12.128-5.56-20.41 0-49.348-9.05-86.888-56.572-86.888-47.522 0-56.572 37.54-56.572 86.888 0 8.282-1.927 14.416-5.56 20.41a8.22 8.22 0 0 0-.496 7.557 8.199 8.199 0 0 0 5.892 4.744c16.129 3.218 30.133 2.185 42.015-3.108V115.63v0h29.442v17.266c11.881 5.293 25.886 6.326 42.015 3.108a8.205 8.205 0 0 0 5.895-4.744 8.22 8.22 0 0 0-.499-7.557z"/></g><g><path fill="#fff48c" d="M212.314 135.712c-35.248 0-63.822 28.635-63.822 63.961v17.229c0 32.427-11.493 36.892-24.242 36.892H114.12v22.14H124.25c17.835 0 48.79-14.916 48.79-44.276h78.556c0 18.684-13.768 22.136-24.242 22.136H217.224v22.14H227.354c20.154 0 48.79-4.31 48.79-44.285v-31.976c0-35.326-28.578-63.96-63.83-63.96"/></g><g><path fill="#fffacf" d="M212.322 135.712c-35.247 0-63.826 28.635-63.826 63.961v17.224c0-35.321 28.579-63.96 63.826-63.96 35.252 0 63.826 28.639 63.826 63.96v-17.224c0-35.326-28.574-63.96-63.826-63.96"/></g><g><path fill="none" stroke="#1a1816" stroke-linecap="round" stroke-linejoin="round" stroke-miterlimit="50" stroke-width="2.5" d="M212.314 135.712c-35.248 0-63.822 28.635-63.822 63.961v17.229c0 32.427-11.493 36.892-24.242 36.892h-10.13v22.14h10.13c17.835 0 48.79-14.916 48.79-44.276h78.556c0 18.684-13.768 22.136-24.242 22.136h-10.13v22.14h10.13c20.154 0 48.79-4.31 48.79-44.285v-31.976c0-35.326-28.578-63.96-63.83-63.96z"/></g><g><path fill="none" stroke="#1a1816" stroke-linecap="round" stroke-linejoin="round" stroke-miterlimit="50" stroke-width="2.5" d="M173.042 202.128v29.52"/></g><g><path fill="none" stroke="#1a1816" stroke-linecap="round" stroke-linejoin="round" stroke-miterlimit="50" stroke-width="2.5" d="M251.605 202.128v29.52"/></g><g><path fill="#020202" fill-opacity=".15" d="M77.458 278.803c0 3.4 32.973 6.15 73.646 6.15 40.672 0 73.645-2.75 73.645-6.15 0-3.399-32.973-6.15-73.645-6.15-40.673 0-73.646 2.751-73.646 6.15"/></g><g><path fill="#ffda8f" d="M217.23 273.471h-7.365c-5.421 0-9.82-4.407-9.82-9.84 0-5.437 4.399-9.84 9.82-9.84h7.364z"/></g><g><path fill="none" stroke="#1a1816" stroke-linecap="round" stroke-linejoin="round" stroke-miterlimit="50" stroke-width="2.5" d="M217.23 273.471v0h-7.365c-5.421 0-9.82-4.407-9.82-9.84 0-5.437 4.399-9.84 9.82-9.84h7.364v0z"/></g><g><path fill="#ffda8f" d="M114.12 273.471h-7.364c-5.421 0-9.82-4.407-9.82-9.84 0-5.437 4.399-9.84 9.82-9.84h7.365z"/></g><g><path fill="none" stroke="#1a1816" stroke-linecap="round" stroke-linejoin="round" stroke-miterlimit="50" stroke-width="2.5" d="M114.12 273.471v0h-7.364c-5.421 0-9.82-4.407-9.82-9.84 0-5.437 4.399-9.84 9.82-9.84h7.365v0z"/></g><g><path fill="none" stroke="#1a1816" stroke-linecap="round" stroke-linejoin="round" stroke-miterlimit="50" stroke-width="2.5" d="M212.313 167.687v63.96"/></g><g><path fill="#ffda8f" d="M227.046 138.173l-14.73 29.52-14.728-29.52v-12.3h29.458z"/></g><g><path fill="#ffbe3d" d="M197.588 137.645c.372.168.724.352 1.112.508 8.245 3.305 18.993 3.305 27.233 0 .393-.156.74-.34 1.113-.508v-11.772h-29.458z"/></g><g><path fill="none" stroke="#1a1816" stroke-linecap="round" stroke-linejoin="round" stroke-miterlimit="50" stroke-width="2.5" d="M227.046 138.173v0l-14.73 29.52v0l-14.728-29.52v0-12.3 0h29.458v0z"/></g><g><path fill="#fff48c" d="M189.315 160.852a4.086 4.086 0 0 0 6.57-.115l7.328-10.278a4.104 4.104 0 0 0-.057-4.843l-6.043-8.08a63.485 63.485 0 0 0-19.308 8.322z"/></g><g><path fill="none" stroke="#1a1816" stroke-linecap="round" stroke-linejoin="round" stroke-miterlimit="50" stroke-width="2.5" d="M189.315 160.852a4.086 4.086 0 0 0 6.57-.115l7.328-10.278a4.104 4.104 0 0 0-.057-4.843l-6.043-8.08a63.485 63.485 0 0 0-19.308 8.322z"/></g><g><path fill="#ffda8f" d="M253.546 82.272s.033-11.41 0-12.091c-12.262-.017-13.698-6.093-13.698-18.065-4.922 7.4-17.368 9.864-27.216 9.864-9.848 0-22.294-2.464-27.216-9.864 0 11.972-1.436 18.048-13.698 18.065-.033.68 0 12.09 0 12.09-4.517 0-8.183 3.674-8.183 8.2 0 4.527 3.666 8.2 8.183 8.2.172 0 .331-.04.503-.053 2.946 19.746 19.889 35.113 40.411 35.113 20.523 0 37.465-15.367 40.411-35.113.172.013.332.054.503.054 4.517 0 8.183-3.674 8.183-8.2 0-4.527-3.666-8.2-8.183-8.2"/></g><g><path fill="none" stroke="#1a1816" stroke-linecap="round" stroke-linejoin="round" stroke-miterlimit="50" stroke-width="2.5" d="M253.546 82.272s.033-11.41 0-12.091c-12.262-.017-13.698-6.093-13.698-18.065-4.922 7.4-17.368 9.864-27.216 9.864-9.848 0-22.294-2.464-27.216-9.864 0 11.972-1.436 18.048-13.698 18.065-.033.68 0 12.09 0 12.09-4.517 0-8.183 3.674-8.183 8.2 0 4.527 3.666 8.2 8.183 8.2.172 0 .331-.04.503-.053 2.946 19.746 19.889 35.113 40.411 35.113 20.523 0 37.465-15.367 40.411-35.113.172.013.332.054.503.054 4.517 0 8.183-3.674 8.183-8.2 0-4.527-3.666-8.2-8.183-8.2z"/></g><g><path fill="#ffbe3d" d="M194.213 97.886a5.122 5.122 0 0 1-5.114 5.125 5.122 5.122 0 0 1-5.114-5.125 5.122 5.122 0 0 1 5.114-5.125 5.122 5.122 0 0 1 5.114 5.125"/></g><g><path fill="#ffbe3d" d="M231.044 97.886a5.122 5.122 0 0 0 5.114 5.125 5.122 5.122 0 0 0 5.114-5.125 5.122 5.122 0 0 0-5.114-5.125 5.122 5.122 0 0 0-5.114 5.125"/></g><g><path fill="none" stroke="#1a1816" stroke-linecap="round" stroke-linejoin="round" stroke-miterlimit="50" stroke-width="2.5" d="M200.318 108.29c7.455 6.576 17.164 6.576 24.618 0"/></g><g><path fill="none" stroke="#1a1816" stroke-linecap="round" stroke-linejoin="round" stroke-miterlimit="50" stroke-width="2.5" d="M202.4 84.557c-1.268-2.415-3.494-4.112-6.153-4.112-2.66 0-4.89 1.697-6.154 4.112"/></g><g><path fill="none" stroke="#1a1816" stroke-linecap="round" stroke-linejoin="round" stroke-miterlimit="50" stroke-width="2.5" d="M235.169 84.527c-1.265-2.415-3.494-4.113-6.154-4.113-2.66 0-4.89 1.698-6.153 4.113"/></g><g><path fill="#fff48c" d="M235.317 160.852a4.086 4.086 0 0 1-6.57-.115l-7.328-10.278a4.104 4.104 0 0 1 .057-4.843l6.043-8.08a63.485 63.485 0 0 1 19.307 8.322z"/></g><g><path fill="none" stroke="#1a1816" stroke-linecap="round" stroke-linejoin="round" stroke-miterlimit="50" stroke-width="2.5" d="M235.317 160.852a4.086 4.086 0 0 1-6.57-.115l-7.328-10.278a4.104 4.104 0 0 1 .057-4.843l6.043-8.08a63.485 63.485 0 0 1 19.307 8.322z"/></g><g><path fill="none" stroke="#1a1816" stroke-linecap="round" stroke-linejoin="round" stroke-miterlimit="50" stroke-width="2.5" d="M153.401 98.813v7.38c0 12.227 9.893 22.14 22.094 22.14h12.274v0"/></g><g><path fill="#fff" d="M168.13 103.736h-9.82a4.914 4.914 0 0 1-4.909-4.92v-14.76a4.914 4.914 0 0 1 4.91-4.92h9.82z"/></g><g><path fill="none" stroke="#1a1816" stroke-linecap="round" stroke-linejoin="round" stroke-miterlimit="50" stroke-width="2.5" d="M168.13 103.736v0h-9.82a4.914 4.914 0 0 1-4.909-4.92v-14.76a4.914 4.914 0 0 1 4.91-4.92h9.82v0z"/></g><g><path fill="#656769" d="M163.221 98.816a4.914 4.914 0 0 0 4.91 4.92 4.914 4.914 0 0 0 4.91-4.92v-14.76a4.914 4.914 0 0 0-4.91-4.92 4.914 4.914 0 0 0-4.91 4.92z"/></g><g><path fill="none" stroke="#1a1816" stroke-linecap="round" stroke-linejoin="round" stroke-miterlimit="50" stroke-width="2.5" d="M163.221 98.816a4.914 4.914 0 0 0 4.91 4.92 4.914 4.914 0 0 0 4.91-4.92v-14.76a4.914 4.914 0 0 0-4.91-4.92 4.914 4.914 0 0 0-4.91 4.92z"/></g><g><path fill="#fff" d="M256.5 103.736h9.819a4.914 4.914 0 0 0 4.91-4.92v-14.76a4.914 4.914 0 0 0-4.91-4.92h-9.82z"/></g><g><path fill="none" stroke="#1a1816" stroke-linecap="round" stroke-linejoin="round" stroke-miterlimit="50" stroke-width="2.5" d="M256.5 103.736v0h9.819a4.914 4.914 0 0 0 4.91-4.92v-14.76a4.914 4.914 0 0 0-4.91-4.92h-9.82v0z"/></g><g><path fill="#656769" d="M261.414 98.816a4.914 4.914 0 0 1-4.91 4.92 4.914 4.914 0 0 1-4.91-4.92v-14.76a4.914 4.914 0 0 1 4.91-4.92 4.914 4.914 0 0 1 4.91 4.92z"/></g><g><path fill="none" stroke="#1a1816" stroke-linecap="round" stroke-linejoin="round" stroke-miterlimit="50" stroke-width="2.5" d="M261.414 98.816a4.914 4.914 0 0 1-4.91 4.92 4.914 4.914 0 0 1-4.91-4.92v-14.76a4.914 4.914 0 0 1 4.91-4.92 4.914 4.914 0 0 1 4.91 4.92z"/></g><g><path fill="#656769" d="M202.496 128.329c0 4.075-3.297 7.38-7.364 7.38s-7.365-3.305-7.365-7.38c0-4.076 3.298-7.38 7.365-7.38s7.364 3.304 7.364 7.38"/></g><g><path fill="none" stroke="#1a1816" stroke-linecap="round" stroke-linejoin="round" stroke-miterlimit="50" stroke-width="2.5" d="M202.496 128.329c0 4.075-3.297 7.38-7.364 7.38s-7.365-3.305-7.365-7.38c0-4.076 3.298-7.38 7.365-7.38s7.364 3.304 7.364 7.38z"/></g><g><path fill="none" stroke="#1a1816" stroke-linecap="round" stroke-linejoin="round" stroke-miterlimit="50" stroke-width="2.5" d="M153.401 91.433v0-22.14c0-32.608 26.378-59.041 58.917-59.041s58.916 26.433 58.916 59.04v22.14"/></g><g><path fill="#e8f4fa" d="M166.192 266.505h9.149l-19.545-60.71a4.084 4.084 0 0 0-3.891-2.84h-6.17z"/></g><g><path fill="none" stroke="#1a1816" stroke-linejoin="round" stroke-miterlimit="50" stroke-width="2.5" d="M166.192 266.505v0h9.149v0l-19.545-60.71a4.084 4.084 0 0 0-3.891-2.84h-6.17v0z"/></g><g><path fill="#adc4d9" d="M86.406 266.505h79.783l-20.458-63.55h-74.16a4.1 4.1 0 0 0-3.9 5.358z"/></g><g><path fill="#c0dceb" d="M145.731 202.954h-74.16a4.1 4.1 0 0 0-3.9 5.359l2.46 7.634h79.782z"/></g><g><path fill="#c0dceb" d="M86.408 266.5h83.875v10.25H94.59c-4.517 0-8.183-3.673-8.183-8.2z"/></g><g><path fill="none" stroke="#1a1816" stroke-linejoin="round" stroke-miterlimit="50" stroke-width="2.5" d="M86.408 266.5v0h83.875v10.25H94.59c-4.517 0-8.183-3.673-8.183-8.2z"/></g><g><path fill="#e8f4fa" d="M170.28 266.5h37.024c1.13 0 2.046.919 2.046 2.05 0 4.527-3.662 8.2-8.183 8.2h-30.886z"/></g><g><path fill="none" stroke="#1a1816" stroke-linejoin="round" stroke-miterlimit="50" stroke-width="2.5" d="M170.28 266.5v0h37.024c1.13 0 2.046.919 2.046 2.05 0 4.527-3.662 8.2-8.183 8.2h-30.886v0z"/></g><g><path fill="#f0f0f0" d="M120.54 232.467c-.028-2.55 2.071-3.772 2.17-3.838-1.183-1.726-3.02-1.964-3.679-1.993-1.563-.16-3.052.923-3.846.923-.79 0-2.017-.902-3.318-.877-1.706.028-3.277.996-4.157 2.525-1.775 3.083-.45 7.647 1.277 10.148.838 1.226 1.845 2.6 3.17 2.55 1.277-.053 1.756-.824 3.29-.824 1.538 0 1.972.824 3.318.795 1.37-.02 2.238-1.242 3.077-2.472.97-1.419 1.367-2.792 1.391-2.866-.029-.012-2.672-1.025-2.692-4.071"/></g><g><path fill="none" stroke="#1a1816" stroke-linejoin="round" stroke-miterlimit="50" stroke-width="2.5" d="M120.54 232.467c-.028-2.55 2.071-3.772 2.17-3.838-1.183-1.726-3.02-1.964-3.679-1.993-1.563-.16-3.052.923-3.846.923-.79 0-2.017-.902-3.318-.877-1.706.028-3.277.996-4.157 2.525-1.775 3.083-.45 7.647 1.277 10.148.838 1.226 1.845 2.6 3.17 2.55 1.277-.053 1.756-.824 3.29-.824 1.538 0 1.972.824 3.318.795 1.37-.02 2.238-1.242 3.077-2.472.97-1.419 1.367-2.792 1.391-2.866-.029-.012-2.672-1.025-2.692-4.071z"/></g><g><path fill="none" stroke="#1a1816" stroke-linecap="round" stroke-linejoin="round" stroke-miterlimit="50" stroke-width="2.5" d="M117.093 221.4l1.845-1.85"/></g><g><path fill="none" stroke="#1a1816" stroke-linejoin="round" stroke-miterlimit="50" stroke-width="2.5" d="M86.406 266.505v0h79.783v0l-20.458-63.55v0h-74.16a4.1 4.1 0 0 0-3.9 5.358z"/></g></g></g></g></svg>